<svg width="196" height="63" viewBox="0 0 196 63" fill="none" xmlns="http://www.w3.org/2000/svg">
<g filter="url(#filter0_d)">
<rect x="10.8837" y="10.4807" width="175" height="42" rx="20.3993" fill="#15B1FB"/>
<path d="M62.9386 36.0307H65.0835V27.9007H67.9936V26.0257H60.0135V27.9007H62.9386V36.0307ZM72.4921 36.0307H74.3971V31.3507C74.3971 29.2657 72.8821 28.6057 71.2321 28.6057C70.0921 28.6057 68.9521 28.9657 68.0671 29.7457L68.7871 31.0207C69.4021 30.4507 70.1221 30.1657 70.9021 30.1657C71.8621 30.1657 72.4921 30.6457 72.4921 31.3807V32.3857C72.0121 31.8007 71.1571 31.5007 70.1971 31.5007C69.0421 31.5007 67.6771 32.1157 67.6771 33.8107C67.6771 35.4307 69.0421 36.2107 70.1971 36.2107C71.1421 36.2107 71.9971 35.8657 72.4921 35.2807V36.0307ZM72.4921 34.2907C72.1771 34.7107 71.5771 34.9207 70.9621 34.9207C70.2121 34.9207 69.5971 34.5307 69.5971 33.8557C69.5971 33.1507 70.2121 32.7607 70.9621 32.7607C71.5771 32.7607 72.1771 32.9707 72.4921 33.3907V34.2907ZM80.9817 36.0307H83.3667L80.4117 32.0707L83.2767 28.7857H80.9367L78.1917 32.0107V26.0257H76.2867V36.0307H78.1917V34.1707L79.0617 33.2407L80.9817 36.0307ZM83.5268 32.4007C83.5268 34.7257 85.1918 36.2107 87.3968 36.2107C88.5218 36.2107 89.6618 35.8657 90.3818 35.2057L89.5418 33.9757C89.0768 34.4257 88.2818 34.6957 87.6068 34.6957C86.3768 34.6957 85.6418 33.9307 85.5218 33.0157H90.9068V32.5957C90.9068 30.2257 89.4368 28.6057 87.2768 28.6057C85.0718 28.6057 83.5268 30.3007 83.5268 32.4007ZM87.2768 30.1207C88.5368 30.1207 89.0168 31.0357 89.0618 31.7257H85.4918C85.5818 31.0057 86.0918 30.1207 87.2768 30.1207ZM100.471 36.0307H102.376V31.3507C102.376 29.2657 100.861 28.6057 99.2107 28.6057C98.0707 28.6057 96.9307 28.9657 96.0457 29.7457L96.7657 31.0207C97.3807 30.4507 98.1007 30.1657 98.8807 30.1657C99.8407 30.1657 100.471 30.6457 100.471 31.3807V32.3857C99.9907 31.8007 99.1357 31.5007 98.1757 31.5007C97.0207 31.5007 95.6557 32.1157 95.6557 33.8107C95.6557 35.4307 97.0207 36.2107 98.1757 36.2107C99.1207 36.2107 99.9757 35.8657 100.471 35.2807V36.0307ZM100.471 34.2907C100.156 34.7107 99.5557 34.9207 98.9407 34.9207C98.1907 34.9207 97.5757 34.5307 97.5757 33.8557C97.5757 33.1507 98.1907 32.7607 98.9407 32.7607C99.5557 32.7607 100.156 32.9707 100.471 33.3907V34.2907ZM110.458 36.0307H112.603V27.9007H115.513V26.0257H107.533V27.9007H110.458V36.0307ZM118.729 36.2107C121.129 36.2107 122.569 34.4707 122.569 32.4007C122.569 30.3457 121.129 28.6057 118.729 28.6057C116.344 28.6057 114.904 30.3457 114.904 32.4007C114.904 34.4707 116.344 36.2107 118.729 36.2107ZM118.729 34.5157C117.544 34.5157 116.884 33.5407 116.884 32.4007C116.884 31.2757 117.544 30.3007 118.729 30.3007C119.914 30.3007 120.589 31.2757 120.589 32.4007C120.589 33.5407 119.914 34.5157 118.729 34.5157ZM128.872 36.0307H130.777V28.7857H128.872V33.6907C128.542 34.1107 127.957 34.5157 127.222 34.5157C126.412 34.5157 125.887 34.1857 125.887 33.1807V28.7857H123.982V33.9307C123.982 35.3407 124.732 36.2107 126.322 36.2107C127.507 36.2107 128.377 35.6707 128.872 35.1157V36.0307ZM132.669 36.0307H134.574V31.2457C134.889 30.7807 135.729 30.4207 136.359 30.4207C136.569 30.4207 136.749 30.4507 136.884 30.4807V28.6207C135.984 28.6207 135.084 29.1307 134.574 29.7757V28.7857H132.669V36.0307Z" fill="white"/>
</g>
<defs>
<filter id="filter0_d" x="0.883667" y="0.480713" width="195" height="62" filterUnits="userSpaceOnUse" color-interpolation-filters="sRGB">
<feFlood flood-opacity="0" result="BackgroundImageFix"/>
<feColorMatrix in="SourceAlpha" type="matrix" values="0 0 0 0 0 0 0 0 0 0 0 0 0 0 0 0 0 0 127 0"/>
<feOffset/>
<feGaussianBlur stdDeviation="5"/>
<feColorMatrix type="matrix" values="0 0 0 0 0 0 0 0 0 0 0 0 0 0 0 0 0 0 0.25 0"/>
<feBlend mode="normal" in2="BackgroundImageFix" result="effect1_dropShadow"/>
<feBlend mode="normal" in="SourceGraphic" in2="effect1_dropShadow" result="shape"/>
</filter>
</defs>
</svg>
