<svg width="432" height="432" viewBox="0 0 432 432" fill="none" xmlns="http://www.w3.org/2000/svg">
<g filter="url(#filter0_d)">
<rect x="15.3982" y="15.1361" width="401.432" height="401.432" fill="#141414"/>
<path d="M216.114 139.075C199.246 139.075 182.756 144.077 168.731 153.448C154.705 162.82 143.773 176.14 137.318 191.725C130.863 207.309 129.174 224.458 132.464 241.002C135.755 257.547 143.878 272.744 155.806 284.672C167.734 296.599 182.931 304.722 199.475 308.013C216.02 311.304 233.169 309.615 248.753 303.16C264.337 296.705 277.658 285.773 287.029 271.747C296.401 257.722 301.403 241.232 301.403 224.363" stroke="#707070" stroke-width="13"/>
<path d="M278.918 203.745C274.692 190.51 266.394 178.948 255.207 170.709C244.019 162.471 230.515 157.978 216.623 157.871" stroke="#15B1FB" stroke-width="13"/>
<path d="M211.923 237.852H208.537V224.798L204.494 226.052V223.298L211.56 220.766H211.923V237.852ZM229.442 230.798C229.442 233.157 228.954 234.962 227.978 236.212C227.001 237.462 225.571 238.087 223.688 238.087C221.829 238.087 220.407 237.473 219.423 236.247C218.438 235.02 217.935 233.262 217.911 230.973V227.833C217.911 225.45 218.403 223.641 219.388 222.407C220.38 221.173 221.806 220.555 223.665 220.555C225.524 220.555 226.946 221.169 227.931 222.395C228.915 223.614 229.419 225.368 229.442 227.657V230.798ZM226.056 227.352C226.056 225.938 225.86 224.911 225.47 224.27C225.087 223.622 224.485 223.298 223.665 223.298C222.868 223.298 222.278 223.606 221.896 224.223C221.521 224.833 221.321 225.79 221.298 227.094V231.243C221.298 232.634 221.485 233.669 221.86 234.348C222.243 235.02 222.853 235.356 223.688 235.356C224.517 235.356 225.114 235.032 225.481 234.384C225.849 233.735 226.04 232.743 226.056 231.407V227.352Z" fill="white"/>
<path d="M133.481 349.61H128.255V363.825H124.739V349.61H119.583V346.763H133.481V349.61ZM142.106 354.321C141.645 354.259 141.239 354.228 140.887 354.228C139.606 354.228 138.766 354.661 138.368 355.528V363.825H134.981V351.146H138.18L138.274 352.657C138.954 351.493 139.895 350.911 141.098 350.911C141.473 350.911 141.825 350.962 142.153 351.063L142.106 354.321ZM151.223 363.825C151.066 363.521 150.953 363.142 150.883 362.688C150.063 363.603 148.996 364.06 147.684 364.06C146.441 364.06 145.41 363.7 144.59 362.981C143.777 362.263 143.371 361.356 143.371 360.263C143.371 358.919 143.867 357.888 144.859 357.169C145.859 356.45 147.301 356.087 149.184 356.079H150.742V355.353C150.742 354.767 150.59 354.298 150.285 353.946C149.988 353.595 149.516 353.419 148.867 353.419C148.297 353.419 147.848 353.556 147.52 353.829C147.199 354.103 147.039 354.478 147.039 354.954H143.652C143.652 354.22 143.879 353.54 144.332 352.915C144.785 352.29 145.426 351.802 146.254 351.45C147.082 351.091 148.012 350.911 149.043 350.911C150.606 350.911 151.844 351.306 152.758 352.095C153.68 352.876 154.141 353.978 154.141 355.399V360.896C154.148 362.099 154.316 363.009 154.645 363.626V363.825H151.223ZM148.422 361.47C148.922 361.47 149.383 361.36 149.805 361.142C150.227 360.915 150.539 360.614 150.742 360.239V358.06H149.477C147.781 358.06 146.879 358.646 146.77 359.817L146.758 360.017C146.758 360.438 146.906 360.786 147.203 361.06C147.5 361.333 147.906 361.47 148.422 361.47ZM160.339 351.146L160.445 352.61C161.351 351.478 162.566 350.911 164.089 350.911C165.433 350.911 166.433 351.306 167.089 352.095C167.746 352.884 168.082 354.063 168.097 355.634V363.825H164.711V355.716C164.711 354.997 164.554 354.478 164.242 354.157C163.929 353.829 163.41 353.665 162.683 353.665C161.73 353.665 161.015 354.071 160.539 354.884V363.825H157.152V351.146H160.339ZM178.023 360.321C178.023 359.907 177.816 359.583 177.401 359.349C176.995 359.106 176.339 358.892 175.433 358.704C172.417 358.071 170.909 356.79 170.909 354.86C170.909 353.735 171.374 352.798 172.304 352.048C173.241 351.29 174.464 350.911 175.972 350.911C177.581 350.911 178.866 351.29 179.827 352.048C180.796 352.806 181.28 353.79 181.28 355.001H177.894C177.894 354.517 177.737 354.118 177.425 353.806C177.112 353.485 176.624 353.325 175.96 353.325C175.39 353.325 174.948 353.454 174.636 353.712C174.323 353.97 174.167 354.298 174.167 354.696C174.167 355.071 174.343 355.376 174.694 355.61C175.054 355.837 175.655 356.036 176.499 356.208C177.343 356.372 178.054 356.56 178.632 356.771C180.421 357.427 181.316 358.563 181.316 360.181C181.316 361.337 180.819 362.274 179.827 362.993C178.835 363.704 177.554 364.06 175.983 364.06C174.921 364.06 173.976 363.872 173.148 363.497C172.327 363.114 171.683 362.595 171.214 361.938C170.745 361.274 170.511 360.56 170.511 359.794H173.722C173.753 360.396 173.976 360.856 174.39 361.177C174.804 361.497 175.358 361.657 176.054 361.657C176.702 361.657 177.191 361.536 177.519 361.294C177.855 361.044 178.023 360.72 178.023 360.321ZM184.913 363.825V353.63H183.026V351.146H184.913V350.067C184.913 348.646 185.319 347.544 186.131 346.763C186.952 345.974 188.096 345.579 189.565 345.579C190.034 345.579 190.608 345.657 191.288 345.813L191.253 348.438C190.971 348.368 190.628 348.333 190.221 348.333C188.948 348.333 188.311 348.931 188.311 350.126V351.146H190.831V353.63H188.311V363.825H184.913ZM198.623 364.06C196.764 364.06 195.248 363.489 194.076 362.349C192.912 361.208 192.33 359.688 192.33 357.79V357.462C192.33 356.188 192.576 355.052 193.068 354.052C193.561 353.044 194.256 352.271 195.154 351.731C196.061 351.185 197.092 350.911 198.248 350.911C199.983 350.911 201.346 351.458 202.338 352.552C203.338 353.646 203.838 355.196 203.838 357.204V358.587H195.764C195.873 359.415 196.201 360.079 196.748 360.579C197.303 361.079 198.002 361.329 198.846 361.329C200.151 361.329 201.17 360.856 201.904 359.911L203.568 361.774C203.061 362.493 202.373 363.056 201.506 363.462C200.639 363.86 199.678 364.06 198.623 364.06ZM198.236 353.653C197.565 353.653 197.018 353.88 196.596 354.333C196.182 354.786 195.916 355.435 195.799 356.278H200.51V356.009C200.494 355.259 200.291 354.681 199.901 354.274C199.51 353.86 198.955 353.653 198.236 353.653ZM213.377 354.321C212.916 354.259 212.509 354.228 212.158 354.228C210.877 354.228 210.037 354.661 209.638 355.528V363.825H206.252V351.146H209.451L209.545 352.657C210.224 351.493 211.166 350.911 212.369 350.911C212.744 350.911 213.095 350.962 213.423 351.063L213.377 354.321ZM222.622 354.321C222.161 354.259 221.755 354.228 221.403 354.228C220.122 354.228 219.282 354.661 218.884 355.528V363.825H215.497V351.146H218.696L218.79 352.657C219.47 351.493 220.411 350.911 221.614 350.911C221.989 350.911 222.341 350.962 222.669 351.063L222.622 354.321ZM228.317 363.825H224.919V351.146H228.317V363.825ZM224.719 347.864C224.719 347.356 224.887 346.938 225.223 346.61C225.567 346.282 226.032 346.118 226.618 346.118C227.196 346.118 227.657 346.282 228.001 346.61C228.344 346.938 228.516 347.356 228.516 347.864C228.516 348.38 228.341 348.802 227.989 349.13C227.645 349.458 227.188 349.622 226.618 349.622C226.048 349.622 225.587 349.458 225.235 349.13C224.891 348.802 224.719 348.38 224.719 347.864ZM234.715 351.146L234.821 352.61C235.727 351.478 236.942 350.911 238.465 350.911C239.809 350.911 240.809 351.306 241.465 352.095C242.121 352.884 242.457 354.063 242.473 355.634V363.825H239.086V355.716C239.086 354.997 238.93 354.478 238.617 354.157C238.305 353.829 237.785 353.665 237.059 353.665C236.106 353.665 235.391 354.071 234.914 354.884V363.825H231.528V351.146H234.715ZM245.039 357.392C245.039 355.446 245.5 353.88 246.422 352.692C247.351 351.505 248.601 350.911 250.172 350.911C251.562 350.911 252.644 351.388 253.418 352.341L253.558 351.146H256.629V363.403C256.629 364.513 256.375 365.478 255.867 366.298C255.367 367.118 254.66 367.743 253.746 368.173C252.832 368.603 251.761 368.817 250.535 368.817C249.605 368.817 248.699 368.63 247.816 368.255C246.933 367.888 246.265 367.411 245.812 366.825L247.312 364.763C248.156 365.708 249.179 366.181 250.383 366.181C251.281 366.181 251.98 365.938 252.48 365.454C252.98 364.978 253.23 364.298 253.23 363.415V362.735C252.449 363.618 251.422 364.06 250.148 364.06C248.625 364.06 247.39 363.466 246.445 362.278C245.508 361.083 245.039 359.501 245.039 357.532V357.392ZM248.426 357.638C248.426 358.786 248.656 359.688 249.117 360.345C249.578 360.993 250.211 361.317 251.015 361.317C252.047 361.317 252.785 360.931 253.23 360.157V354.825C252.777 354.052 252.047 353.665 251.039 353.665C250.226 353.665 249.586 353.997 249.117 354.661C248.656 355.325 248.426 356.317 248.426 357.638ZM266.999 363.825V353.63H265.112V351.146H266.999V350.56C267.014 348.966 267.503 347.739 268.464 346.88C269.432 346.013 270.796 345.579 272.553 345.579C273.608 345.579 274.889 345.81 276.397 346.271L275.905 349.071C275.139 348.845 274.546 348.7 274.124 348.638C273.702 348.567 273.249 348.532 272.764 348.532C271.186 348.532 270.397 349.231 270.397 350.63V351.146H272.893V353.63H270.397V363.825H266.999ZM277.979 363.825H274.581V351.146H277.979V363.825ZM284.834 363.825H281.436V345.825H284.834V363.825ZM293.951 364.06C292.092 364.06 290.576 363.489 289.404 362.349C288.24 361.208 287.658 359.688 287.658 357.79V357.462C287.658 356.188 287.904 355.052 288.396 354.052C288.888 353.044 289.584 352.271 290.482 351.731C291.388 351.185 292.42 350.911 293.576 350.911C295.31 350.911 296.674 351.458 297.666 352.552C298.666 353.646 299.166 355.196 299.166 357.204V358.587H291.092C291.201 359.415 291.529 360.079 292.076 360.579C292.631 361.079 293.33 361.329 294.174 361.329C295.478 361.329 296.498 360.856 297.232 359.911L298.896 361.774C298.388 362.493 297.701 363.056 296.834 363.462C295.967 363.86 295.006 364.06 293.951 364.06ZM293.564 353.653C292.892 353.653 292.346 353.88 291.924 354.333C291.51 354.786 291.244 355.435 291.127 356.278H295.838V356.009C295.822 355.259 295.619 354.681 295.228 354.274C294.838 353.86 294.283 353.653 293.564 353.653ZM308.447 360.321C308.447 359.907 308.24 359.583 307.826 359.349C307.419 359.106 306.763 358.892 305.857 358.704C302.841 358.071 301.333 356.79 301.333 354.86C301.333 353.735 301.798 352.798 302.728 352.048C303.665 351.29 304.888 350.911 306.396 350.911C308.005 350.911 309.29 351.29 310.251 352.048C311.22 352.806 311.704 353.79 311.704 355.001H308.318C308.318 354.517 308.161 354.118 307.849 353.806C307.536 353.485 307.048 353.325 306.384 353.325C305.814 353.325 305.372 353.454 305.06 353.712C304.747 353.97 304.591 354.298 304.591 354.696C304.591 355.071 304.767 355.376 305.118 355.61C305.478 355.837 306.079 356.036 306.923 356.208C307.767 356.372 308.478 356.56 309.056 356.771C310.845 357.427 311.74 358.563 311.74 360.181C311.74 361.337 311.243 362.274 310.251 362.993C309.259 363.704 307.978 364.06 306.408 364.06C305.345 364.06 304.4 363.872 303.572 363.497C302.751 363.114 302.107 362.595 301.638 361.938C301.169 361.274 300.935 360.56 300.935 359.794H304.146C304.177 360.396 304.4 360.856 304.814 361.177C305.228 361.497 305.783 361.657 306.478 361.657C307.126 361.657 307.615 361.536 307.943 361.294C308.279 361.044 308.447 360.72 308.447 360.321Z" fill="white"/>
</g>
<defs>
<filter id="filter0_d" x="0.398193" y="0.136108" width="431.432" height="431.432" filterUnits="userSpaceOnUse" color-interpolation-filters="sRGB">
<feFlood flood-opacity="0" result="BackgroundImageFix"/>
<feColorMatrix in="SourceAlpha" type="matrix" values="0 0 0 0 0 0 0 0 0 0 0 0 0 0 0 0 0 0 127 0"/>
<feOffset/>
<feGaussianBlur stdDeviation="7.5"/>
<feColorMatrix type="matrix" values="0 0 0 0 0 0 0 0 0 0 0 0 0 0 0 0 0 0 0.3 0"/>
<feBlend mode="normal" in2="BackgroundImageFix" result="effect1_dropShadow"/>
<feBlend mode="normal" in="SourceGraphic" in2="effect1_dropShadow" result="shape"/>
</filter>
</defs>
</svg>
