<svg width="422" height="422" viewBox="0 0 422 422" fill="none" xmlns="http://www.w3.org/2000/svg">
<g filter="url(#filter0_d)">
<rect x="10.1179" y="10.1361" width="401.432" height="401.432" fill="#141414"/>
<path d="M210.834 299.511C228.369 299.511 245.51 294.311 260.09 284.569C274.67 274.827 286.033 260.98 292.744 244.78C299.454 228.58 301.21 210.754 297.789 193.556C294.368 176.358 285.924 160.56 273.525 148.161C261.126 135.762 245.328 127.318 228.13 123.897C210.932 120.476 193.106 122.232 176.906 128.943C160.706 135.653 146.859 147.016 137.117 161.596C127.375 176.176 122.176 193.317 122.176 210.852" stroke="#707070" stroke-width="11"/>
<path d="M165.928 255.758C175.725 265.555 188.457 271.879 202.183 273.766C215.908 275.654 229.875 273.001 241.952 266.212C254.03 259.423 263.556 248.871 269.078 236.164C274.6 223.457 275.815 209.293 272.538 195.831C269.261 182.37 261.671 170.349 250.927 161.602C240.182 152.855 226.872 147.862 213.025 147.384C199.179 146.906 185.556 150.969 174.233 158.954C162.911 166.939 154.511 178.408 150.313 191.612" stroke="#15B1FB" stroke-width="11"/>
<path d="M89.2051 354.349C89.2051 353.685 88.9707 353.177 88.502 352.825C88.0332 352.466 87.1895 352.091 85.9707 351.7C84.752 351.302 83.7871 350.911 83.0762 350.528C81.1387 349.481 80.1699 348.071 80.1699 346.298C80.1699 345.376 80.4277 344.556 80.9434 343.837C81.4668 343.11 82.2129 342.544 83.1816 342.138C84.1582 341.731 85.252 341.528 86.4629 341.528C87.6816 341.528 88.7676 341.751 89.7207 342.196C90.6738 342.634 91.4121 343.255 91.9355 344.06C92.4668 344.864 92.7324 345.778 92.7324 346.802H89.2168C89.2168 346.021 88.9707 345.415 88.4785 344.985C87.9863 344.548 87.2949 344.329 86.4043 344.329C85.5449 344.329 84.877 344.513 84.4004 344.88C83.9238 345.239 83.6855 345.716 83.6855 346.31C83.6855 346.864 83.9629 347.329 84.5176 347.704C85.0801 348.079 85.9043 348.431 86.9902 348.759C88.9902 349.36 90.4473 350.106 91.3613 350.997C92.2754 351.888 92.7324 352.997 92.7324 354.325C92.7324 355.802 92.1738 356.962 91.0566 357.806C89.9395 358.642 88.4355 359.06 86.5449 359.06C85.2324 359.06 84.0371 358.821 82.959 358.345C81.8809 357.86 81.0566 357.2 80.4863 356.364C79.9238 355.528 79.6426 354.56 79.6426 353.458H83.1699C83.1699 355.341 84.2949 356.282 86.5449 356.282C87.3809 356.282 88.0332 356.114 88.502 355.778C88.9707 355.435 89.2051 354.958 89.2051 354.349ZM101.216 359.06C99.357 359.06 97.8413 358.489 96.6695 357.349C95.5054 356.208 94.9234 354.688 94.9234 352.79V352.462C94.9234 351.188 95.1695 350.052 95.6616 349.052C96.1538 348.044 96.8491 347.271 97.7476 346.731C98.6538 346.185 99.6851 345.911 100.841 345.911C102.576 345.911 103.939 346.458 104.931 347.552C105.931 348.646 106.431 350.196 106.431 352.204V353.587H98.357C98.4663 354.415 98.7945 355.079 99.3413 355.579C99.896 356.079 100.595 356.329 101.439 356.329C102.744 356.329 103.763 355.856 104.498 354.911L106.162 356.774C105.654 357.493 104.966 358.056 104.099 358.462C103.232 358.86 102.271 359.06 101.216 359.06ZM100.83 348.653C100.158 348.653 99.6109 348.88 99.189 349.333C98.7749 349.786 98.5093 350.435 98.3921 351.278H103.103V351.009C103.087 350.259 102.884 349.681 102.494 349.274C102.103 348.86 101.548 348.653 100.83 348.653ZM116.192 358.825C116.036 358.521 115.923 358.142 115.853 357.688C115.032 358.603 113.966 359.06 112.653 359.06C111.411 359.06 110.38 358.7 109.56 357.981C108.747 357.263 108.341 356.356 108.341 355.263C108.341 353.919 108.837 352.888 109.829 352.169C110.829 351.45 112.271 351.087 114.153 351.079H115.712V350.353C115.712 349.767 115.56 349.298 115.255 348.946C114.958 348.595 114.485 348.419 113.837 348.419C113.267 348.419 112.817 348.556 112.489 348.829C112.169 349.103 112.009 349.478 112.009 349.954H108.622C108.622 349.22 108.849 348.54 109.302 347.915C109.755 347.29 110.396 346.802 111.224 346.45C112.052 346.091 112.981 345.911 114.013 345.911C115.575 345.911 116.814 346.306 117.728 347.095C118.649 347.876 119.11 348.978 119.11 350.399V355.896C119.118 357.099 119.286 358.009 119.614 358.626V358.825H116.192ZM113.392 356.47C113.892 356.47 114.353 356.36 114.774 356.142C115.196 355.915 115.509 355.614 115.712 355.239V353.06H114.446C112.751 353.06 111.849 353.646 111.739 354.817L111.728 355.017C111.728 355.438 111.876 355.786 112.173 356.06C112.47 356.333 112.876 356.47 113.392 356.47ZM129.317 349.321C128.856 349.259 128.45 349.228 128.098 349.228C126.817 349.228 125.977 349.661 125.579 350.528V358.825H122.192V346.146H125.391L125.485 347.657C126.165 346.493 127.106 345.911 128.309 345.911C128.684 345.911 129.036 345.962 129.364 346.063L129.317 349.321ZM136.477 356.329C137.102 356.329 137.609 356.157 138 355.813C138.391 355.47 138.594 355.013 138.609 354.442H141.785C141.777 355.302 141.543 356.091 141.082 356.81C140.621 357.521 139.988 358.075 139.184 358.474C138.387 358.864 137.504 359.06 136.535 359.06C134.723 359.06 133.293 358.485 132.246 357.337C131.199 356.181 130.676 354.587 130.676 352.556V352.333C130.676 350.38 131.195 348.821 132.234 347.657C133.274 346.493 134.699 345.911 136.512 345.911C138.098 345.911 139.367 346.364 140.32 347.271C141.281 348.169 141.77 349.368 141.785 350.868H138.609C138.594 350.212 138.391 349.681 138 349.274C137.609 348.86 137.094 348.653 136.453 348.653C135.664 348.653 135.066 348.942 134.66 349.521C134.262 350.091 134.063 351.021 134.063 352.31V352.661C134.063 353.966 134.262 354.903 134.66 355.474C135.059 356.044 135.664 356.329 136.477 356.329ZM147.504 347.528C148.402 346.45 149.531 345.911 150.89 345.911C153.64 345.911 155.035 347.509 155.074 350.704V358.825H151.687V350.798C151.687 350.071 151.531 349.536 151.218 349.192C150.906 348.841 150.386 348.665 149.66 348.665C148.668 348.665 147.949 349.048 147.504 349.813V358.825H144.117V340.825H147.504V347.528ZM161.683 358.825H158.284V346.146H161.683V358.825ZM158.085 342.864C158.085 342.356 158.253 341.938 158.589 341.61C158.933 341.282 159.398 341.118 159.984 341.118C160.562 341.118 161.023 341.282 161.366 341.61C161.71 341.938 161.882 342.356 161.882 342.864C161.882 343.38 161.706 343.802 161.355 344.13C161.011 344.458 160.554 344.622 159.984 344.622C159.413 344.622 158.952 344.458 158.601 344.13C158.257 343.802 158.085 343.38 158.085 342.864ZM168.081 346.146L168.186 347.61C169.092 346.478 170.307 345.911 171.831 345.911C173.174 345.911 174.174 346.306 174.831 347.095C175.487 347.884 175.823 349.063 175.839 350.634V358.825H172.452V350.716C172.452 349.997 172.296 349.478 171.983 349.157C171.671 348.829 171.151 348.665 170.424 348.665C169.471 348.665 168.756 349.071 168.28 349.884V358.825H164.893V346.146H168.081ZM178.404 352.392C178.404 350.446 178.865 348.88 179.787 347.692C180.717 346.505 181.967 345.911 183.537 345.911C184.928 345.911 186.01 346.388 186.783 347.341L186.924 346.146H189.994V358.403C189.994 359.513 189.74 360.478 189.233 361.298C188.733 362.118 188.026 362.743 187.111 363.173C186.197 363.603 185.127 363.817 183.901 363.817C182.971 363.817 182.065 363.63 181.182 363.255C180.299 362.888 179.631 362.411 179.178 361.825L180.678 359.763C181.522 360.708 182.545 361.181 183.748 361.181C184.647 361.181 185.346 360.938 185.846 360.454C186.346 359.978 186.596 359.298 186.596 358.415V357.735C185.815 358.618 184.787 359.06 183.514 359.06C181.99 359.06 180.756 358.466 179.811 357.278C178.873 356.083 178.404 354.501 178.404 352.532V352.392ZM181.791 352.638C181.791 353.786 182.022 354.688 182.483 355.345C182.944 355.993 183.576 356.317 184.381 356.317C185.412 356.317 186.151 355.931 186.596 355.157V349.825C186.143 349.052 185.412 348.665 184.404 348.665C183.592 348.665 182.951 348.997 182.483 349.661C182.022 350.325 181.791 351.317 181.791 352.638ZM200.47 358.825V348.63H198.583V346.146H200.47V345.067C200.47 343.646 200.876 342.544 201.689 341.763C202.509 340.974 203.654 340.579 205.122 340.579C205.591 340.579 206.165 340.657 206.845 340.813L206.81 343.438C206.529 343.368 206.185 343.333 205.779 343.333C204.505 343.333 203.868 343.931 203.868 345.126V346.146H206.388V348.63H203.868V358.825H200.47ZM208.098 352.368C208.098 351.11 208.341 349.989 208.825 349.005C209.309 348.021 210.005 347.259 210.911 346.72C211.825 346.181 212.884 345.911 214.087 345.911C215.798 345.911 217.192 346.435 218.27 347.481C219.356 348.528 219.962 349.95 220.087 351.747L220.11 352.614C220.11 354.56 219.567 356.122 218.481 357.302C217.395 358.474 215.938 359.06 214.11 359.06C212.282 359.06 210.821 358.474 209.727 357.302C208.641 356.13 208.098 354.536 208.098 352.521V352.368ZM211.485 352.614C211.485 353.817 211.712 354.739 212.165 355.38C212.618 356.013 213.266 356.329 214.11 356.329C214.93 356.329 215.571 356.017 216.032 355.392C216.493 354.759 216.723 353.751 216.723 352.368C216.723 351.188 216.493 350.274 216.032 349.626C215.571 348.978 214.923 348.653 214.087 348.653C213.259 348.653 212.618 348.978 212.165 349.626C211.712 350.267 211.485 351.263 211.485 352.614ZM229.801 349.321C229.34 349.259 228.934 349.228 228.582 349.228C227.301 349.228 226.461 349.661 226.063 350.528V358.825H222.676V346.146H225.875L225.969 347.657C226.649 346.493 227.59 345.911 228.793 345.911C229.168 345.911 229.52 345.962 229.848 346.063L229.801 349.321ZM243.652 356.329C244.277 356.329 244.784 356.157 245.175 355.813C245.566 355.47 245.769 355.013 245.784 354.442H248.96C248.952 355.302 248.718 356.091 248.257 356.81C247.796 357.521 247.163 358.075 246.359 358.474C245.562 358.864 244.679 359.06 243.71 359.06C241.898 359.06 240.468 358.485 239.421 357.337C238.374 356.181 237.851 354.587 237.851 352.556V352.333C237.851 350.38 238.37 348.821 239.409 347.657C240.449 346.493 241.874 345.911 243.687 345.911C245.273 345.911 246.542 346.364 247.495 347.271C248.456 348.169 248.945 349.368 248.96 350.868H245.784C245.769 350.212 245.566 349.681 245.175 349.274C244.784 348.86 244.269 348.653 243.628 348.653C242.839 348.653 242.241 348.942 241.835 349.521C241.437 350.091 241.238 351.021 241.238 352.31V352.661C241.238 353.966 241.437 354.903 241.835 355.474C242.234 356.044 242.839 356.329 243.652 356.329ZM258.721 358.825C258.565 358.521 258.452 358.142 258.382 357.688C257.561 358.603 256.495 359.06 255.182 359.06C253.94 359.06 252.909 358.7 252.089 357.981C251.276 357.263 250.87 356.356 250.87 355.263C250.87 353.919 251.366 352.888 252.358 352.169C253.358 351.45 254.8 351.087 256.682 351.079H258.241V350.353C258.241 349.767 258.089 349.298 257.784 348.946C257.487 348.595 257.014 348.419 256.366 348.419C255.796 348.419 255.346 348.556 255.018 348.829C254.698 349.103 254.538 349.478 254.538 349.954H251.151C251.151 349.22 251.378 348.54 251.831 347.915C252.284 347.29 252.925 346.802 253.753 346.45C254.581 346.091 255.511 345.911 256.542 345.911C258.104 345.911 259.343 346.306 260.257 347.095C261.179 347.876 261.639 348.978 261.639 350.399V355.896C261.647 357.099 261.815 358.009 262.143 358.626V358.825H258.721ZM255.921 356.47C256.421 356.47 256.882 356.36 257.304 356.142C257.725 355.915 258.038 355.614 258.241 355.239V353.06H256.975C255.28 353.06 254.378 353.646 254.268 354.817L254.257 355.017C254.257 355.438 254.405 355.786 254.702 356.06C254.999 356.333 255.405 356.47 255.921 356.47ZM267.897 346.146L268.002 347.563C268.901 346.462 270.116 345.911 271.647 345.911C273.28 345.911 274.401 346.556 275.01 347.845C275.901 346.556 277.17 345.911 278.819 345.911C280.194 345.911 281.217 346.313 281.889 347.118C282.561 347.915 282.897 349.118 282.897 350.728V358.825H279.498V350.739C279.498 350.021 279.358 349.497 279.076 349.169C278.795 348.833 278.299 348.665 277.588 348.665C276.573 348.665 275.869 349.149 275.479 350.118L275.491 358.825H272.104V350.751C272.104 350.017 271.959 349.485 271.67 349.157C271.381 348.829 270.889 348.665 270.194 348.665C269.233 348.665 268.537 349.063 268.108 349.86V358.825H264.721V346.146H267.897ZM291.826 359.06C289.967 359.06 288.451 358.489 287.279 357.349C286.115 356.208 285.533 354.688 285.533 352.79V352.462C285.533 351.188 285.779 350.052 286.271 349.052C286.764 348.044 287.459 347.271 288.357 346.731C289.264 346.185 290.295 345.911 291.451 345.911C293.185 345.911 294.549 346.458 295.541 347.552C296.541 348.646 297.041 350.196 297.041 352.204V353.587H288.967C289.076 354.415 289.404 355.079 289.951 355.579C290.506 356.079 291.205 356.329 292.049 356.329C293.353 356.329 294.373 355.856 295.107 354.911L296.771 356.774C296.264 357.493 295.576 358.056 294.709 358.462C293.842 358.86 292.881 359.06 291.826 359.06ZM291.439 348.653C290.767 348.653 290.221 348.88 289.799 349.333C289.385 349.786 289.119 350.435 289.002 351.278H293.713V351.009C293.697 350.259 293.494 349.681 293.103 349.274C292.713 348.86 292.158 348.653 291.439 348.653ZM306.579 349.321C306.119 349.259 305.712 349.228 305.361 349.228C304.079 349.228 303.24 349.661 302.841 350.528V358.825H299.454V346.146H302.654L302.747 347.657C303.427 346.493 304.369 345.911 305.572 345.911C305.947 345.911 306.298 345.962 306.626 346.063L306.579 349.321ZM315.696 358.825C315.54 358.521 315.427 358.142 315.356 357.688C314.536 358.603 313.47 359.06 312.157 359.06C310.915 359.06 309.884 358.7 309.063 357.981C308.251 357.263 307.845 356.356 307.845 355.263C307.845 353.919 308.341 352.888 309.333 352.169C310.333 351.45 311.774 351.087 313.657 351.079H315.216V350.353C315.216 349.767 315.063 349.298 314.759 348.946C314.462 348.595 313.989 348.419 313.341 348.419C312.77 348.419 312.321 348.556 311.993 348.829C311.673 349.103 311.513 349.478 311.513 349.954H308.126C308.126 349.22 308.352 348.54 308.806 347.915C309.259 347.29 309.899 346.802 310.727 346.45C311.556 346.091 312.485 345.911 313.516 345.911C315.079 345.911 316.317 346.306 317.231 347.095C318.153 347.876 318.614 348.978 318.614 350.399V355.896C318.622 357.099 318.79 358.009 319.118 358.626V358.825H315.696ZM312.895 356.47C313.395 356.47 313.856 356.36 314.278 356.142C314.7 355.915 315.013 355.614 315.216 355.239V353.06H313.95C312.255 353.06 311.352 353.646 311.243 354.817L311.231 355.017C311.231 355.438 311.38 355.786 311.677 356.06C311.974 356.333 312.38 356.47 312.895 356.47ZM321.871 357.161C321.871 356.622 322.051 356.185 322.411 355.849C322.778 355.513 323.235 355.345 323.782 355.345C324.336 355.345 324.793 355.513 325.153 355.849C325.52 356.185 325.704 356.622 325.704 357.161C325.704 357.692 325.524 358.126 325.164 358.462C324.805 358.79 324.344 358.954 323.782 358.954C323.227 358.954 322.77 358.79 322.411 358.462C322.051 358.126 321.871 357.692 321.871 357.161ZM329.336 357.161C329.336 356.622 329.516 356.185 329.875 355.849C330.242 355.513 330.699 355.345 331.246 355.345C331.801 355.345 332.258 355.513 332.617 355.849C332.984 356.185 333.168 356.622 333.168 357.161C333.168 357.692 332.988 358.126 332.629 358.462C332.269 358.79 331.809 358.954 331.246 358.954C330.691 358.954 330.234 358.79 329.875 358.462C329.516 358.126 329.336 357.692 329.336 357.161ZM336.8 357.161C336.8 356.622 336.98 356.185 337.339 355.849C337.706 355.513 338.164 355.345 338.71 355.345C339.265 355.345 339.722 355.513 340.081 355.849C340.449 356.185 340.632 356.622 340.632 357.161C340.632 357.692 340.453 358.126 340.093 358.462C339.734 358.79 339.273 358.954 338.71 358.954C338.156 358.954 337.699 358.79 337.339 358.462C336.98 358.126 336.8 357.692 336.8 357.161Z" fill="white"/>
</g>
<defs>
<filter id="filter0_d" x="0.11792" y="0.136108" width="421.432" height="421.432" filterUnits="userSpaceOnUse" color-interpolation-filters="sRGB">
<feFlood flood-opacity="0" result="BackgroundImageFix"/>
<feColorMatrix in="SourceAlpha" type="matrix" values="0 0 0 0 0 0 0 0 0 0 0 0 0 0 0 0 0 0 127 0"/>
<feOffset/>
<feGaussianBlur stdDeviation="5"/>
<feColorMatrix type="matrix" values="0 0 0 0 0 0 0 0 0 0 0 0 0 0 0 0 0 0 0.3 0"/>
<feBlend mode="normal" in2="BackgroundImageFix" result="effect1_dropShadow"/>
<feBlend mode="normal" in="SourceGraphic" in2="effect1_dropShadow" result="shape"/>
</filter>
</defs>
</svg>
